<svg xmlns="http://www.w3.org/2000/svg" viewBox="0 0 275 77.05"><defs><style>.cls-1{fill:#f39322;}.cls-2{fill:#3466af;}</style></defs><title>logo</title><g id="Capa_2" data-name="Capa 2"><g id="logo"><path class="cls-1" d="M145.15,9.85a6.56,6.56,0,0,0-6.55,6.56,6.05,6.05,0,0,0,.21,1.6,9.11,9.11,0,0,1,12.68,0,6.05,6.05,0,0,0,.21-1.6A6.56,6.56,0,0,0,145.15,9.85Z"/><path class="cls-1" d="M144.12,5.88l.19,1.44a7.75,7.75,0,0,1,.84,0,7.45,7.45,0,0,1,.83,0l.19-1.46v0l.53-4v0h-.32l-2.72,0h-.06l.51,4Z"/><path class="cls-1" d="M154.31,5l-2.47,3.22,0,0-.89,1.15a8.44,8.44,0,0,1,1.19,1.2l1.18-.92,3.21-2.48A14.24,14.24,0,0,0,154.31,5Z"/><path class="cls-1" d="M139.36,9.35l-.9-1.18h0L136,5a15.11,15.11,0,0,0-2.2,2.18L137,9.63l1.19.92A8.44,8.44,0,0,1,139.36,9.35Z"/><path class="cls-1" d="M159.73,14.78l-4,.52-1.49.18c0,.31.05.62.05.93a6.79,6.79,0,0,1,0,.78v0l1.48.18h0l4,.52c0-.51.08-1,.08-1.51A14.7,14.7,0,0,0,159.73,14.78Z"/><path class="cls-1" d="M134.59,15.31h0l-4-.52c-.05.54-.08,1.07-.08,1.62s0,1,.08,1.51l4-.52h0l1.48-.19a7.26,7.26,0,0,1,0-.8,6.85,6.85,0,0,1,.05-.91Z"/><polygon class="cls-2" points="0 62.17 13.55 62.17 13.55 10.28 0 0 0 62.17"/><path class="cls-2" d="M43.57,21.61c-5.85,0-10.44,2.44-13.25,7V22.12H17.15V62.17H30.32V41c.52-4.52,3.41-7.55,7.85-7.63,4.14,0,6.81,2.82,6.81,7.33V62.17h13.1V36.93C58.08,27.53,52.31,21.61,43.57,21.61Z"/><path class="cls-2" d="M86.66,21.68A14.3,14.3,0,0,0,74.89,27.3V17.53L61.71,7.25V62.17H74.89V57A14.65,14.65,0,0,0,87,62.61c11.11,0,18.36-8.07,18.36-20.28C105.31,29.9,97.84,21.68,86.66,21.68ZM83.4,52c-5,0-8.51-4-8.51-9.91s3.48-10,8.51-10,8.66,4.07,8.66,10S88.58,52,83.4,52Z"/><path class="cls-2" d="M122.18,28.79V22.12H109V62.17h13.18V41.74c.66-5.55,5.55-8.81,12.88-8.07V21.61A14.4,14.4,0,0,0,122.18,28.79Z"/><path class="cls-2" d="M145.15,18a6.56,6.56,0,0,0-6.55,6.56v37.6h13.1V24.57A6.56,6.56,0,0,0,145.15,18Z"/><path class="cls-2" d="M183.72,27c-2.66-3.41-6.66-5.33-11.69-5.33-9.92,0-16.8,7.55-16.8,19,0,11.62,7.1,19.32,17.09,19.32,5,0,8.81-1.85,11.4-5.26V59c0,4.66-3.62,7.69-9.62,7.69a22,22,0,0,1-12.36-3.92l-4.59,9.11a33.26,33.26,0,0,0,17.91,5.18c13,0,21.77-7.11,21.77-18.43V22.12H183.72Zm-8.06,23.32c-4.89,0-8.15-3.85-8.15-9.33s3.26-9.4,8.15-9.4,8.06,3.77,8.06,9.4C183.72,46.48,180.47,50.33,175.66,50.33Z"/><path class="cls-2" d="M227,21.61c-5.85,0-10.44,2.44-13.25,7V7.25H200.55V62.17h13.18V42.41c0-5.26,3-9,7.85-9,4.21,0,6.81,2.82,6.81,7.33V62.17h13.17V36.93C241.56,27.53,235.79,21.61,227,21.61Z"/><path class="cls-2" d="M272.48,50.77a13.85,13.85,0,0,1-5,1.33c-2.29.08-3.62-1.26-3.62-4.22V32.78h10.36V24.05H263.9V13H250.8v11.1h-5.56v8.73h5.56V50c0,8.29,5.62,12.88,13.39,12.8A22.07,22.07,0,0,0,275,60.1Z"/></g></g></svg>