<svg xmlns="http://www.w3.org/2000/svg" viewBox="0 0 128.036 29">
  <defs>
    <style>
      .cls-1 {
        fill: #ffc001;
      }

      .cls-2 {
        fill: #ffc001;
      }
    </style>
  </defs>
  <g id="Logo" transform="translate(45.021 -29)">
    <g id="Group_15" data-name="Group 15" transform="translate(-45.021 29)">
      <path id="Path_29" data-name="Path 29" class="cls-1" d="M18.5,5.574,8.482,14.783v10.34L2.1,20.76V10.582l8.078-7.916,5.251,3.393L17.045,4.6,9.936,0,.242,9.451,0,9.694v12.2L10.5,29V15.671l8.24-7.513,7.028,4.524v9.451l-6.624-4.281V11.794h-2.1v7.189L27.869,25.85V11.471Z"/>
      <g id="Group_15-2" data-name="Group 15" transform="translate(37.967 8.078)">
        <path id="Path_30" data-name="Path 30" class="cls-2" d="M55.967,17.028a3.779,3.779,0,0,0-1.131-.646c-.4-.162-.808-.323-1.292-.485-.565-.242-1.05-.4-1.454-.565s-.808-.323-1.05-.4a1.944,1.944,0,0,1-.646-.485.87.87,0,0,1-.162-.646,1.3,1.3,0,0,1,.485-1.05,2.2,2.2,0,0,1,1.292-.323,2.057,2.057,0,0,1,1.535.485,1.9,1.9,0,0,1,.485,1.373h2.827a4.341,4.341,0,0,0-.4-1.7,3.482,3.482,0,0,0-1.05-1.373,4.787,4.787,0,0,0-1.535-.889A4.739,4.739,0,0,0,52.008,10a6.3,6.3,0,0,0-1.777.242,4.1,4.1,0,0,0-1.454.727,6.975,6.975,0,0,0-1.05,1.131,3.341,3.341,0,0,0-.4,1.535,3.481,3.481,0,0,0,.242,1.373,2.557,2.557,0,0,0,.646.969,2.9,2.9,0,0,0,.969.646c.4.162.727.323,1.212.485.646.242,1.212.485,1.7.646a9.4,9.4,0,0,1,1.212.485,2.819,2.819,0,0,1,.727.485.987.987,0,0,1,.242.727,1.145,1.145,0,0,1-.565,1.131,2.766,2.766,0,0,1-1.454.323,2.65,2.65,0,0,1-1.7-.485,1.853,1.853,0,0,1-.646-1.7H47a4.881,4.881,0,0,0,.4,1.939,3.156,3.156,0,0,0,1.131,1.373,5.2,5.2,0,0,0,1.616.889,6.943,6.943,0,0,0,1.939.323,7.967,7.967,0,0,0,1.939-.242,5.831,5.831,0,0,0,1.616-.727,3.019,3.019,0,0,0,1.05-1.212,3.755,3.755,0,0,0,.4-1.7A3.219,3.219,0,0,0,56.855,18,4.844,4.844,0,0,0,55.967,17.028Z" transform="translate(-47 -10)"/>
        <path id="Path_31" data-name="Path 31" class="cls-2" d="M72.04,20.1a2.991,2.991,0,0,1-1.858.565,3.4,3.4,0,0,1-1.616-.323,3.081,3.081,0,0,1-1.131-.889,3.247,3.247,0,0,1-.646-1.292,4.722,4.722,0,0,1-.162-1.535,8.947,8.947,0,0,1,.162-1.535,3.887,3.887,0,0,1,.646-1.292,3.625,3.625,0,0,1,1.05-.889,2.766,2.766,0,0,1,1.454-.323,3.343,3.343,0,0,1,2.181.646,2.809,2.809,0,0,1,.808,1.616h2.908a7.056,7.056,0,0,0-.4-1.777,4.013,4.013,0,0,0-1.05-1.535A5.593,5.593,0,0,0,72.605,10.4,6.446,6.446,0,0,0,70.02,10a5.631,5.631,0,0,0-2.666.565,8.7,8.7,0,0,0-1.939,1.454,7.545,7.545,0,0,0-1.212,2.1,8.461,8.461,0,0,0-.4,2.423,7.615,7.615,0,0,0,.4,2.423,5.5,5.5,0,0,0,1.212,2.1,7.173,7.173,0,0,0,1.939,1.454,5.853,5.853,0,0,0,2.666.565,7.655,7.655,0,0,0,2.423-.323,6.269,6.269,0,0,0,1.777-.969,3.948,3.948,0,0,0,1.131-1.454,4.587,4.587,0,0,0,.565-1.777H73.009A3.591,3.591,0,0,1,72.04,20.1Z" transform="translate(-50.229 -10)"/>
        <path id="Path_32" data-name="Path 32" class="cls-2" d="M93.159,12.219a3.737,3.737,0,0,0-1.7-1.454,5.465,5.465,0,0,0-2.181-.565,6.7,6.7,0,0,0-2.585.485,5.187,5.187,0,0,0-2.019,1.454,6.139,6.139,0,0,0-1.292,2.1,6.711,6.711,0,0,0,0,5.008,7.019,7.019,0,0,0,1.292,2.1A6.164,6.164,0,0,0,86.7,22.8a6.7,6.7,0,0,0,2.585.485,4.4,4.4,0,0,0,2.181-.565,3.737,3.737,0,0,0,1.7-1.454v1.7h2.908V10.523H93.159ZM92.836,18.2a4.1,4.1,0,0,1-.727,1.292,6.1,6.1,0,0,1-1.131.889,3.278,3.278,0,0,1-1.535.323,2.766,2.766,0,0,1-1.454-.323,3.082,3.082,0,0,1-1.131-.889,3.37,3.37,0,0,1-.727-1.292,4.981,4.981,0,0,1,0-3.07,4.1,4.1,0,0,1,.727-1.292,6.1,6.1,0,0,1,1.131-.889,2.958,2.958,0,0,1,1.454-.323,3.5,3.5,0,0,1,1.535.323,3.081,3.081,0,0,1,1.131.889,3.37,3.37,0,0,1,.727,1.292,4.7,4.7,0,0,1,.242,1.535A2.4,2.4,0,0,1,92.836,18.2Z" transform="translate(-53.9 -10.038)"/>
        <path id="Path_33" data-name="Path 33" class="cls-2" d="M109.762,18.84,106.37,10.6H103.3l5.493,12.44h1.939l5.655-12.44h-3.15Z" transform="translate(-57.821 -10.115)"/>
        <path id="Path_34" data-name="Path 34" class="cls-2" d="M131.759,12.219a3.737,3.737,0,0,0-1.7-1.454,5.465,5.465,0,0,0-2.181-.565,6.7,6.7,0,0,0-2.585.485,5.187,5.187,0,0,0-2.019,1.454,6.139,6.139,0,0,0-1.292,2.1,6.711,6.711,0,0,0,0,5.008,7.019,7.019,0,0,0,1.292,2.1A6.164,6.164,0,0,0,125.3,22.8a6.7,6.7,0,0,0,2.585.485,4.4,4.4,0,0,0,2.181-.565,3.737,3.737,0,0,0,1.7-1.454v1.7h2.908V10.523h-2.908Zm-.242,5.978a4.1,4.1,0,0,1-.727,1.292,6.1,6.1,0,0,1-1.131.889,3.278,3.278,0,0,1-1.535.323,2.766,2.766,0,0,1-1.454-.323,3.081,3.081,0,0,1-1.131-.889,3.37,3.37,0,0,1-.727-1.292,4.982,4.982,0,0,1,0-3.07,4.1,4.1,0,0,1,.727-1.292,6.1,6.1,0,0,1,1.131-.889,2.958,2.958,0,0,1,1.454-.323,3.5,3.5,0,0,1,1.535.323,3.081,3.081,0,0,1,1.131.889,3.369,3.369,0,0,1,.727,1.292,4.7,4.7,0,0,1,.242,1.535A4.372,4.372,0,0,1,131.517,18.2Z" transform="translate(-61.319 -10.038)"/>
        <path id="Path_35" data-name="Path 35" class="cls-2" d="M155.609,13.431a3.762,3.762,0,0,0-2.1-2.747,4.918,4.918,0,0,0-2.262-.485,5.9,5.9,0,0,0-2.423.485,3.709,3.709,0,0,0-1.616,1.535v-1.7H144.3v12.44h2.908V16.5a4.7,4.7,0,0,1,.727-2.666,2.47,2.47,0,0,1,2.262-1.05,2.2,2.2,0,0,1,1.292.323,1.947,1.947,0,0,1,.808.808,4.258,4.258,0,0,1,.4,1.212,8.9,8.9,0,0,1,.162,1.454v6.462h2.908V15.693A8.91,8.91,0,0,0,155.609,13.431Z" transform="translate(-65.701 -10.038)"/>
        <rect id="Rectangle_123" data-name="Rectangle 123" class="cls-2" width="4.847" height="2.423" transform="translate(17.61 15.348)"/>
      </g>
    </g>
  </g>
</svg>