<?xml version="1.0" standalone="no"?>
<!DOCTYPE svg PUBLIC "-//W3C//DTD SVG 20010904//EN"
 "http://www.w3.org/TR/2001/REC-SVG-20010904/DTD/svg10.dtd">
<svg version="1.0" xmlns="http://www.w3.org/2000/svg"
 width="260.000000pt" height="260.000000pt" viewBox="0 0 260.000000 260.000000"
 preserveAspectRatio="xMidYMid meet">
<metadata>
Created by potrace 1.14, written by Peter Selinger 2001-2017
</metadata>
<g transform="translate(0.000000,260.000000) scale(0.100000,-0.100000)"
fill="#000000" stroke="none">
<path d="M1294 2572 c5 -8 9 -112 7 -169 -1 -31 -13 -41 -60 -49 -8 -2 -26 -6
-40 -10 -14 -4 -30 -8 -36 -8 -11 -1 -11 -39 0 -72 6 -19 -1 -24 -72 -50 -107
-39 -137 -58 -151 -98 -12 -32 -111 -134 -217 -221 -50 -41 -95 -80 -152 -131
-29 -26 -33 -36 -38 -104 -9 -110 -8 -118 26 -161 31 -40 62 -62 89 -65 8 -1
36 -7 62 -12 108 -21 166 2 257 103 20 23 29 26 70 22 25 -2 72 -14 104 -26
63 -23 116 -28 186 -16 l44 7 -59 -63 c-32 -34 -71 -76 -86 -92 -16 -16 -28
-32 -28 -37 0 -5 -4 -10 -9 -12 -11 -4 -188 -248 -227 -313 -88 -146 -117
-324 -74 -450 27 -79 27 -79 5 -80 -60 -2 -76 -52 -76 -248 0 -107 4 -163 12
-173 10 -12 100 -14 575 -14 l564 0 10 26 c16 40 10 331 -7 365 -15 29 -46 53
-56 43 -11 -11 -41 14 -45 37 -2 13 -5 61 -7 105 -3 70 2 105 40 252 24 94 46
176 50 182 3 6 9 22 11 37 3 15 18 59 34 98 44 106 51 142 64 368 7 116 -65
394 -129 502 -78 129 -252 262 -406 309 -49 15 -59 22 -74 56 -17 38 -139 170
-157 170 -5 0 -7 -4 -4 -8z"/>
</g>
</svg>
